<?xml version="1.0" encoding="utf-8"?>
<!-- Generator: Adobe Illustrator 24.0.3, SVG Export Plug-In . SVG Version: 6.00 Build 0)  -->
<svg version="1.1" id="Слой_1" xmlns="http://www.w3.org/2000/svg" xmlns:xlink="http://www.w3.org/1999/xlink" x="0px" y="0px"
	 viewBox="0 0 200 50" style="enable-background:new 0 0 200 50;" xml:space="preserve">
<style type="text/css">
	.st0{fill:#C3C5C5;}
	.st1{fill:#1A9FD0;}
	.st2{fill:#2059A2;}
	.st3{fill:#197FBC;}
	.st4{fill:#186AAD;}
	.st5{fill:#FFFFFF;}
</style>
<g>
	<path class="st0" d="M61.43,33.09c0.76,0,1.45-0.31,2.15-0.53c5.42-1.73,10.84-3.49,16.25-5.24c1.05-0.34,2.1-0.67,3.15-1.02
		c0.36-0.12,0.42-0.1,0.4,0.33c-0.06,1.49-0.04,2.97-0.04,4.46c0,0.93-0.03,1.87,0.01,2.8c0.02,0.45-0.2,0.6-0.54,0.74
		c-3.02,1.21-6.05,2.42-9.06,3.64c-3.72,1.51-7.44,3.03-11.17,4.53c-0.33,0.13-0.64,0.34-1.02,0.35c0.01-0.04,0.02-0.07,0.02-0.11
		c0-3.17,0.01-6.34,0.01-9.51C61.6,33.36,61.58,33.21,61.43,33.09z"/>
	<path class="st1" d="M144.75,15.13c0.01-4.72,3.86-8.52,8.63-8.5c4.51,0.03,8.5,3.65,8.45,8.6c-0.04,4.7-3.63,8.44-8.48,8.48
		C148.38,23.75,144.75,19.79,144.75,15.13z M151.38,14.92C151.38,14.92,151.38,14.92,151.38,14.92c0,0.86,0,1.71-0.01,2.57
		c0,0.29,0.09,0.41,0.39,0.41c0.3,0,0.41-0.1,0.39-0.41c-0.02-0.42,0-0.84,0-1.26c0-0.81,0-0.8,0.84-0.82
		c0.7-0.01,1.41,0.09,2.08-0.24c0.56-0.28,0.92-0.94,0.88-1.66c-0.04-0.72-0.42-1.26-1.07-1.47c-1.06-0.34-2.16-0.11-3.23-0.16
		c-0.33-0.01-0.28,0.25-0.28,0.45C151.38,13.21,151.38,14.07,151.38,14.92z M149.37,14.61c0.52-0.49,0.62-0.66,0.65-1.07
		c0.05-0.82-0.5-1.49-1.35-1.65c-0.91-0.17-1.89,0.39-2.1,1.18c-0.04,0.14-0.12,0.33,0.11,0.37c0.19,0.03,0.44,0.17,0.55-0.1
		c0.07-0.18,0.14-0.35,0.26-0.5c0.29-0.37,0.68-0.5,1.12-0.35c0.41,0.14,0.67,0.43,0.69,0.89c0.02,0.5-0.27,0.77-0.69,0.94
		c-0.12,0.05-0.26,0.08-0.39,0.08c-0.22,0.01-0.3,0.11-0.3,0.32c0,0.28,0.18,0.22,0.35,0.23c0.77,0.03,1.2,0.39,1.27,1.04
		c0.06,0.63-0.32,1.22-0.88,1.36c-0.65,0.17-1.13-0.08-1.43-0.8c-0.12-0.3-0.3-0.37-0.57-0.29c-0.36,0.11-0.19,0.36-0.13,0.56
		c0.3,1.01,1.73,1.48,2.78,0.93C150.63,17.07,150.65,15.6,149.37,14.61z M156.93,14.92C156.93,14.92,156.93,14.92,156.93,14.92
		c0,0.84,0.01,1.68,0,2.52c0,0.28,0.03,0.48,0.39,0.47c1.01-0.02,2.02-0.01,3.03-0.01c0.26,0,0.38-0.09,0.38-0.37
		c0-0.28-0.12-0.36-0.38-0.35c-0.69,0.01-1.37-0.02-2.06,0.01c-0.43,0.02-0.55-0.12-0.55-0.55c0.03-1.43,0-2.86,0.02-4.29
		c0-0.33-0.08-0.48-0.45-0.47c-0.36,0-0.4,0.18-0.39,0.47C156.93,13.2,156.93,14.06,156.93,14.92z"/>
	<path class="st2" d="M84.27,37.88c-0.01-2.04-0.02-4.08-0.03-6.12c0-1.83-0.01-3.66,0.01-5.49c0-0.33-0.07-0.48-0.44-0.47
		c-0.88,0.03-1.65-0.15-1.86-1.22c-1.34,1.44-3,1.53-4.7,1.24c-1.14-0.19-1.87-1.18-1.99-2.49c-0.11-1.25,0.39-2.14,1.48-2.64
		c1.24-0.56,2.58-0.66,3.89-0.87c0.52-0.09,1.03-0.14,1.1-0.84c0.09-0.96-0.17-1.6-0.83-1.9c-1.43-0.64-2.71-0.07-3.18,1.45
		c-0.06,0.2-0.17,0.22-0.33,0.22c-0.31,0-0.61,0-0.92,0c-0.88,0-0.91-0.02-0.66-0.89c0.37-1.27,1.2-2.06,2.5-2.31
		c0.94-0.18,1.89-0.19,2.84-0.02c1.78,0.32,2.73,1.43,2.72,3.26c-0.01,1.47-0.08,2.94-0.11,4.4c-0.02,0.89,0.08,0.96,0.99,0.98
		c0.55,0.01,1.1-0.08,1.65,0.06c0,3.68,0,7.36,0.01,11.04c0,0.22-0.08,0.46,0.09,0.66c0.05,0.02,0.1,0.03,0.15,0.05
		c0.19,0.12,0.41,0.07,0.61,0.07c1.66,0.01,3.32,0,4.97,0.01c0.63,0,0.64,0.02,0.5,0.75c-0.06-0.33,0.05-0.65-0.42-0.65
		c-1.56,0.03-3.13,0.02-4.69,0.02c-0.04,0-0.09,0.05-0.16,0.1c0.86,0.66,1.88,0.13,2.77,0.41c0,0.06,0,0.12,0,0.18
		c-0.91,0-1.81,0-2.72,0c0.24,0.27,0.53,0.12,0.76,0.26c-0.05,0.49-0.53,0.32-0.76,0.6c1.73,0,3.46,0,5.19,0c0,0.04,0,0.09,0,0.13
		C89.9,37.88,87.09,37.88,84.27,37.88z M81.74,21.16c0.02-0.43,0.03-0.41-0.61-0.26c-0.48,0.11-0.97,0.18-1.46,0.27
		c-0.54,0.11-1.08,0.24-1.56,0.53c-0.55,0.34-0.79,0.96-0.66,1.69c0.11,0.6,0.5,0.98,1.14,1.12c1.19,0.25,2.31-0.33,2.79-1.45
		C81.62,22.54,81.71,21.98,81.74,21.16z M87.18,36.25c-0.03-0.01-0.06-0.03-0.09-0.04c-0.01,0.03-0.04,0.07-0.04,0.09
		c0.01,0.02,0.06,0.05,0.09,0.04C87.16,36.33,87.17,36.28,87.18,36.25z"/>
	<path class="st0" d="M51.93,9.87c0.4,0.12,0.78,0.04,1.17-0.1c1.18-0.44,2.36-0.85,3.53-1.3c0.41-0.16,0.48-0.02,0.47,0.36
		c-0.01,3.22-0.01,6.44,0,9.66c0,0.4-0.14,0.56-0.5,0.69c-2.46,0.87-4.9,1.76-7.35,2.65c-0.51,0.19-1.01,0.39-1.52,0.59
		c-0.05,0-0.11,0.01-0.16,0.01c0.01-1.68,0.01-3.37,0.02-5.05c0.15-0.07,0.29-0.16,0.45-0.22c1.17-0.43,2.34-0.83,3.49-1.28
		c0.24-0.1,0.6,0.03,0.74-0.32c0.11-1.57,0.02-3.15,0.05-4.72C52.33,10.44,52.36,10.07,51.93,9.87z"/>
	<path class="st3" d="M114.32,29.24c0.12-0.43-0.19-1.03,0.09-1.21c0.45-0.27,1.07-0.06,1.62-0.09c0.27-0.02,0.31,0.14,0.31,0.36
		c-0.01,3.28,0.03,6.56-0.05,9.84c-0.05,1.97-1.35,3.24-3.32,3.54c-1.33,0.2-2.62,0.09-3.86-0.47c-0.87-0.39-1.22-1.16-1.45-2.01
		c-0.06-0.21,0.05-0.28,0.24-0.27c0.52,0,1.03,0.01,1.55,0c0.2,0,0.25,0.13,0.32,0.27c0.51,1.03,1.43,1.17,2.43,1.09
		c0.93-0.07,1.55-0.54,1.82-1.47c0.23-0.8,0.17-1.6,0.26-2.45c-0.34,0.05-0.36,0.3-0.49,0.44c-1.76,1.85-5.2,1.28-6.32-1.1
		c-0.83-1.74-0.92-3.57-0.3-5.4c0.52-1.55,1.67-2.45,3.27-2.67c1.48-0.2,2.8,0.17,3.74,1.45C114.19,29.14,114.26,29.18,114.32,29.24
		z M114.27,32.71c0.03-0.47-0.09-1.07-0.23-1.66c-0.21-0.91-0.84-1.51-1.63-1.81c-1.09-0.42-2.45,0.27-2.94,1.4
		c-0.6,1.39-0.61,2.82-0.04,4.23c0.35,0.86,1.09,1.31,1.99,1.42c0.91,0.11,1.7-0.12,2.25-0.91
		C114.21,34.61,114.27,33.74,114.27,32.71z"/>
	<path class="st2" d="M60.89,18.88c0.03-2.17,0.28-4.04,1.69-5.54c0.67-0.71,1.44-1.23,2.39-1.49c1.35-0.38,2.71-0.41,4.08-0.14
		c2.4,0.47,3.52,2.58,3.73,4.27c0.04,0.29-0.07,0.38-0.34,0.36c-0.11-0.01-0.23-0.01-0.34,0c-0.93,0.11-1.54,0.01-1.9-1.15
		c-0.77-2.48-4.67-2.06-5.72-0.47c-0.54,0.82-0.87,1.69-1.01,2.65c-0.21,1.5-0.1,2.97,0.46,4.39c0.7,1.77,2.15,2.65,3.95,2.44
		c1.5-0.17,2.38-1.01,2.71-2.66c0.09-0.45,0.27-0.55,0.67-0.51c0.38,0.03,0.77,0.05,1.14,0c0.6-0.09,0.6,0.2,0.5,0.65
		c-0.9,4.19-4.25,5.21-7.82,4.1c-2.6-0.8-3.84-2.67-4.08-5.3C60.95,19.87,60.91,19.26,60.89,18.88z"/>
	<path class="st2" d="M89.61,16.92c0.19-0.01,0.24-0.13,0.31-0.21c2.21-2.37,5.57-1.75,6.72,1.28c0.73,1.95,0.75,3.95-0.17,5.84
		c-1.25,2.57-4.6,3-6.54,0.89c-0.05-0.05-0.1-0.09-0.19-0.17c0,1.41-0.03,2.75,0.01,4.09c0.02,0.56-0.1,0.83-0.7,0.7
		c-0.04-0.01-0.08,0-0.11,0c-1.34,0-1.34,0-1.34-1.31c0-3.95,0-7.9-0.01-11.85c0-0.4,0.1-0.57,0.5-0.51c0.07,0.01,0.15,0,0.23,0
		c0.42,0.01,0.93-0.12,1.22,0.08C89.83,15.96,89.53,16.51,89.61,16.92z M94.89,20.66c0.04-0.85-0.06-1.82-0.58-2.63
		c-0.53-0.84-1.38-1.31-2.45-1.11c-0.99,0.18-1.64,0.81-1.94,1.74c-0.44,1.36-0.45,2.74,0.02,4.1c0.35,1,1.38,1.72,2.4,1.73
		c0.97,0,1.83-0.65,2.22-1.68C94.82,22.15,94.9,21.47,94.89,20.66z"/>
	<path class="st0" d="M47.6,28.12c0,1.89-0.01,3.77,0,5.66c0,0.37-0.11,0.54-0.45,0.65c-1.26,0.44-2.5,0.91-3.75,1.35
		c-0.23,0.08-0.48,0.29-0.75,0.06c0.28-0.14,0.16-0.4,0.16-0.61c0.01-3.65,0.02-7.29,0.03-10.94c0.11-0.08,0.2-0.19,0.32-0.22
		c0.88-0.24,1.7-0.68,2.57-0.92c0.62-0.18,1.19-0.56,1.87-0.52C47.6,24.46,47.6,26.29,47.6,28.12z"/>
	<path class="st2" d="M119.36,24.6c-1.35,1.43-3,1.51-4.7,1.21c-1.08-0.19-1.84-1.18-1.97-2.38c-0.14-1.24,0.35-2.18,1.39-2.69
		c1.05-0.51,2.19-0.65,3.32-0.82c0.21-0.03,0.42-0.06,0.62-0.09c0.93-0.16,1.09-0.29,1.15-0.92c0.09-0.97-0.23-1.59-0.96-1.87
		c-1.21-0.45-2.63-0.08-2.88,0.93c-0.2,0.83-0.64,0.82-1.27,0.8c-1.06-0.03-1.12-0.06-0.74-1.08c0.36-0.96,0.93-1.64,2.02-1.96
		c1.1-0.33,2.16-0.35,3.25-0.18c1.8,0.29,2.74,1.41,2.72,3.24c-0.01,1.41-0.07,2.82-0.11,4.23c-0.01,0.25,0.02,0.49,0.05,0.74
		c0.02,0.21,0.17,0.32,0.36,0.4c0.18,0.07,0.5-0.16,0.53,0.15c0.05,0.43,0.01,0.87-0.01,1.31c0,0.03-0.08,0.07-0.13,0.1
		C121.05,26.17,119.75,25.64,119.36,24.6z M119.19,20.7c-0.71,0.29-1.4,0.35-2.07,0.47c-0.55,0.1-1.08,0.24-1.56,0.53
		c-0.63,0.37-0.75,0.97-0.69,1.63c0.05,0.57,0.4,0.94,0.92,1.13c1.08,0.39,2.41-0.15,2.93-1.17
		C119.12,22.5,119.13,21.64,119.19,20.7z"/>
	<path class="st2" d="M42.84,24.29c-0.01,3.65-0.01,7.29-0.03,10.94c0,0.21,0.11,0.47-0.16,0.61c-1.48-0.55-2.96-1.09-4.45-1.64
		c0-3.89-0.01-7.78-0.01-11.67c0.84,0.29,1.69,0.54,2.51,0.87C41.42,23.68,42.2,23.81,42.84,24.29z"/>
	<path class="st4" d="M94.62,33.03c-0.01-0.73,0.08-1.45,0.3-2.15c1.08-3.49,4.82-3.94,7.08-2.69c1.25,0.69,1.96,1.81,2.23,3.2
		c0.38,1.94,0.3,3.84-1.09,5.4c-1.39,1.56-3.21,1.92-5.16,1.33c-2.03-0.61-3.02-2.13-3.29-4.18C94.64,33.64,94.64,33.34,94.62,33.03
		z M102.14,32.93c0.01-0.63-0.03-1.26-0.2-1.87c-0.28-1.07-1.2-1.82-2.31-1.88c-1.14-0.05-2.2,0.62-2.5,1.7
		c-0.39,1.4-0.43,2.83,0.05,4.23c0.35,1.04,1.02,1.64,2.24,1.64c1.31,0,2.15-0.62,2.51-1.9C102.11,34.22,102.16,33.58,102.14,32.93z
		"/>
	<path class="st2" d="M47.6,28.12c0-1.83,0-3.66,0-5.49c0.07-0.04,0.14-0.08,0.22-0.11c2.98,1.12,5.96,2.24,8.94,3.36
		c0,0.97-0.01,1.94,0.01,2.91c0.02,0.7-0.09,1.4,0.06,2.1c0,0.08,0,0.16,0,0.25c-0.07,0.08-0.13,0.15-0.2,0.23
		c-2.9-1.05-5.81-2.09-8.71-3.14C47.82,28.19,47.71,28.15,47.6,28.12z"/>
	<path class="st3" d="M126.34,34.92c0.13,0,0.27,0.01,0.4,0c0.45-0.05,0.71,0.03,0.8,0.58c0.11,0.79,0.79,1.33,1.6,1.39
		c0.76,0.06,1.54,0.13,2.12-0.53c0.66-0.77,0.39-1.92-0.53-2.32c-0.8-0.34-1.66-0.4-2.49-0.62c-0.52-0.14-1.02-0.33-1.49-0.57
		c-0.97-0.51-1.4-1.78-1.12-2.98c0.33-1.4,1.35-1.96,2.63-2.19c1.63-0.29,3.21-0.28,4.45,1.06c0.1,0.11,0.21,0.23,0.27,0.37
		c0.22,0.47,0.75,1.06,0.38,1.45c-0.34,0.36-1.08,0.08-1.65,0.1c-0.22,0.01-0.19-0.2-0.22-0.34c-0.17-0.68-0.6-1.12-1.28-1.22
		c-0.8-0.12-1.62-0.18-2.22,0.54c-0.54,0.65-0.27,1.65,0.54,2.01c0.86,0.38,1.81,0.42,2.71,0.66c0.93,0.25,1.79,0.59,2.25,1.51
		c0.78,1.57,0.12,3.53-1.52,4.17c-1.85,0.72-3.7,0.69-5.41-0.46c-0.7-0.47-1.06-1.18-1.24-1.99c-0.09-0.4-0.08-0.74,0.5-0.61
		C125.99,34.95,126.16,34.92,126.34,34.92C126.34,34.92,126.34,34.92,126.34,34.92z"/>
	<path class="st2" d="M61.43,33.09c0.15,0.12,0.17,0.28,0.17,0.46c-0.01,3.17-0.01,6.34-0.01,9.51c0,0.04-0.01,0.07-0.02,0.11
		c-1.45-0.52-2.9-1.04-4.35-1.54c-0.29-0.1-0.36-0.25-0.36-0.54c0.01-3.2,0.01-6.4,0.01-9.59c0.04,0.01,0.08,0.02,0.12,0.03
		C58.46,32.04,59.95,32.56,61.43,33.09z"/>
	<path class="st1" d="M154.11,27.51c2.52,0.01,3.51,1.38,4.07,3.13c0.18,0.57,0.09,0.67-0.5,0.67c-0.04,0-0.08,0-0.11,0
		c-0.82,0.08-1.45,0.03-1.68-1.03c-0.2-0.91-1.06-1.16-1.95-1.14c-0.98,0.02-1.71,0.48-2.07,1.36c-0.61,1.5-0.63,3.04-0.06,4.57
		c0.52,1.38,1.76,2.01,3.16,1.56c0.8-0.26,1.18-0.95,1.24-1.75c0.04-0.46,0.2-0.59,0.62-0.55c0.42,0.03,0.84,0.02,1.26,0
		c0.28-0.01,0.4,0.1,0.33,0.37c-0.4,1.46-1.03,2.73-2.54,3.37c-2.6,1.09-5.47-0.22-6.35-2.92c-0.69-2.12-0.55-4.14,0.75-5.98
		c0.52-0.73,1.2-1.23,2.16-1.42C153,27.65,153.54,27.52,154.11,27.51z"/>
	<path class="st1" d="M137.14,33.24c0-1.05-0.01-2.1,0.01-3.15c0.01-0.41-0.12-0.61-0.56-0.56c-0.19,0.02-0.38-0.02-0.57,0.01
		c-0.46,0.06-0.62-0.06-0.59-0.57c0.07-1.02,0.03-1.05,1.08-1.02c0.5,0.01,0.62-0.16,0.6-0.63c-0.03-0.63,0-1.26-0.01-1.89
		c-0.01-0.33,0.09-0.5,0.45-0.48c0.46,0.02,0.92,0.02,1.37,0c0.3-0.01,0.4,0.11,0.4,0.4c-0.02,0.71,0,1.41-0.02,2.12
		c-0.01,0.35,0.11,0.49,0.46,0.46c0.25-0.02,0.5-0.02,0.74,0c0.29,0.03,0.74-0.16,0.83,0.14c0.13,0.39,0.06,0.86,0.03,1.3
		c-0.01,0.2-0.23,0.16-0.37,0.16c-0.4,0-0.8,0.02-1.2,0c-0.39-0.03-0.49,0.14-0.48,0.5c0.01,1.32,0.01,2.63,0,3.95
		c0,0.53-0.04,1.06,0.02,1.6c0.11,0.99,0.51,1.33,1.44,0.99c0.65-0.24,0.64,0.02,0.63,0.51c-0.02,1.05-0.01,1.06-1.06,1.14
		c-0.46,0.04-0.92,0.04-1.37,0.02c-1.11-0.04-1.74-0.63-1.79-1.74c-0.04-1.08-0.01-2.17-0.01-3.26
		C137.16,33.24,137.15,33.24,137.14,33.24z"/>
	<path class="st2" d="M106.46,20.84c0-1.01-0.01-2.02,0.01-3.03c0.01-0.4-0.08-0.63-0.53-0.55c-0.02,0-0.04,0-0.06,0
		c-1.16-0.01-1.14-0.01-1.11-1.16c0.01-0.32,0.09-0.42,0.42-0.43c1.26-0.03,1.25-0.05,1.27-1.34c0.01-0.52-0.25-1.25,0.12-1.52
		c0.37-0.26,1.06-0.07,1.61-0.1c0.3-0.02,0.41,0.09,0.4,0.39c-0.02,0.48,0,0.95-0.01,1.43c0,1.15,0,1.15,1.18,1.15
		c0.17,0,0.35,0.02,0.51,0c0.34-0.04,0.41,0.12,0.42,0.43c0.02,1.16,0.03,1.16-1.11,1.16c-1,0-1,0-1,0.98c0,1.47,0,2.94,0,4.41
		c0,0.19,0,0.38,0.01,0.57c0.07,1.04,0.43,1.33,1.44,1.08c0.5-0.13,0.7-0.11,0.66,0.5c-0.06,0.94-0.02,0.94-0.96,1.1
		c-0.42,0.07-0.83,0.09-1.25,0.08c-1.3-0.05-1.88-0.59-2-1.87c-0.02-0.23-0.02-0.46-0.02-0.69
		C106.45,22.56,106.45,21.7,106.46,20.84z"/>
	<path class="st1" d="M47.82,22.51c-0.07,0.04-0.14,0.08-0.22,0.11c-0.68-0.03-1.25,0.35-1.87,0.52c-0.88,0.25-1.69,0.69-2.57,0.92
		c-0.12,0.03-0.22,0.15-0.32,0.22c-0.63-0.48-1.42-0.61-2.13-0.9c-0.82-0.33-1.67-0.58-2.51-0.87c-0.03-0.01-0.06-0.01-0.1-0.01
		c0.16-0.26,0.45-0.25,0.69-0.34c1.2-0.43,2.38-0.89,3.59-1.29c0.35-0.12,0.42-0.29,0.42-0.62c-0.01-1.41,0.01-2.82-0.01-4.23
		c-0.01-0.4,0.15-0.56,0.51-0.69c1.43-0.49,2.86-1.01,4.29-1.52c0.07,0.03,0.13,0.08,0.2,0.1c1.5,0.54,3,1.08,4.49,1.62
		c-0.13,0.35-0.49,0.23-0.74,0.32c-1.15,0.46-2.33,0.86-3.49,1.28c-0.15,0.06-0.3,0.14-0.45,0.22c-0.19-0.26-0.52-0.22-0.78-0.32
		c-1.13-0.43-2.28-0.85-3.42-1.24c-0.19-0.07-0.52-0.29-0.52,0.25c0.02,1.45,0.01,2.9,0.01,4.34c0,0.2,0.02,0.34,0.27,0.42
		c1.48,0.52,2.95,1.06,4.42,1.59c0.05,0,0.11-0.01,0.16-0.01C47.76,22.44,47.79,22.48,47.82,22.51z"/>
	<path class="st2" d="M125.09,18.82c0-2.14,0.01-4.27-0.01-6.41c0-0.39,0.08-0.56,0.5-0.51c0.52,0.06,1.2-0.22,1.54,0.12
		c0.31,0.31,0.08,0.98,0.08,1.49c-0.02,3.89-0.05,7.78-0.06,11.67c0,0.41-0.08,0.6-0.53,0.54c-0.51-0.06-1.17,0.21-1.49-0.1
		c-0.32-0.31-0.09-0.97-0.09-1.48c-0.01-1.77,0-3.55,0-5.32C125.05,18.82,125.07,18.82,125.09,18.82z"/>
	<path class="st0" d="M56.98,31.52c-0.04-0.01-0.08-0.02-0.12-0.03c0,0,0-0.01,0-0.01c-0.01-0.12-0.02-0.23-0.03-0.35
		c0-0.08,0-0.16,0-0.25c0.06-1.67,0.05-3.34,0.01-5.01c1.43-0.41,2.8-0.97,4.19-1.47c0.4-0.15,0.56-0.14,0.55,0.37
		c-0.03,1.5-0.02,3.01,0,4.51c0,0.33-0.09,0.51-0.42,0.63c-1.24,0.43-2.47,0.89-3.7,1.34C57.29,31.32,57.07,31.3,56.98,31.52z"/>
	<path class="st2" d="M52.27,15.55c-1.5-0.54-3-1.08-4.49-1.62c-0.07-0.03-0.13-0.07-0.2-0.1c0-1.81,0-3.62,0-5.5
		c1.49,0.53,2.92,1.03,4.35,1.54c0.43,0.2,0.4,0.57,0.39,0.96C52.29,12.4,52.37,13.98,52.27,15.55z"/>
	<path class="st1" d="M146.11,33.02c0,1.49-0.01,2.97,0.01,4.46c0,0.38-0.08,0.56-0.5,0.52c-0.53-0.05-1.2,0.21-1.55-0.1
		c-0.36-0.32-0.12-1.01-0.12-1.54c-0.01-2.63,0-5.26-0.01-7.89c0-0.42,0.09-0.59,0.54-0.55c0.4,0.04,0.8,0.03,1.2,0
		c0.36-0.03,0.45,0.13,0.44,0.46C146.1,29.93,146.1,31.48,146.11,33.02z"/>
	<path class="st2" d="M102.35,20.71c0,1.49-0.01,2.97,0.01,4.46c0.01,0.41-0.07,0.6-0.53,0.55c-0.51-0.06-1.17,0.21-1.49-0.1
		c-0.32-0.31-0.1-0.98-0.1-1.49c-0.01-2.63,0-5.26-0.01-7.89c0-0.42,0.07-0.64,0.56-0.58c0.5,0.07,1.16-0.21,1.48,0.12
		c0.29,0.3,0.08,0.94,0.08,1.44C102.36,18.39,102.35,19.55,102.35,20.71z"/>
	<path class="st3" d="M120.07,32.9c0-1.47,0.02-2.94-0.01-4.4c-0.01-0.41,0.07-0.6,0.52-0.56c0.51,0.05,1.16-0.2,1.49,0.1
		c0.34,0.31,0.1,0.97,0.11,1.48c0.01,2.65,0,5.3,0.02,7.95c0,0.44-0.13,0.57-0.55,0.54c-0.36-0.03-0.73-0.03-1.09,0
		c-0.42,0.04-0.51-0.14-0.5-0.52C120.08,35.95,120.07,34.43,120.07,32.9z"/>
	<path class="st1" d="M104.68,13.57c-1.15,0.44-2.16,0.84-3.17,1.22c-0.25,0.1-0.52,0.11-0.79,0.02c-1.05-0.38-2.09-0.77-3.3-1.22
		c0.76-0.29,1.38-0.52,2-0.76c0.12-0.05,0.25-0.08,0.37-0.13c0.75-0.34,1.47-0.49,2.28-0.11C102.88,12.97,103.74,13.22,104.68,13.57
		z"/>
	<path class="st2" d="M141.45,25.62c1.23-0.45,2.32-0.84,3.4-1.24c0.17-0.06,0.33-0.02,0.5,0.04c1.05,0.39,2.11,0.76,3.24,1.17
		c-0.5,0.3-1.04,0.36-1.49,0.61c-1.35,0.73-2.69,0.74-4.05,0.02C142.6,25.98,142.09,25.86,141.45,25.62z"/>
	<path class="st4" d="M84.27,37.88c2.82,0,5.63,0,8.45,0c0-0.04,0-0.09,0-0.13c-1.73,0-3.46,0-5.19,0c0.23-0.28,0.71-0.11,0.76-0.6
		c-0.23-0.15-0.52,0.01-0.76-0.26c0.91,0,1.81,0,2.72,0c0-0.06,0-0.12,0-0.18c-0.88-0.28-1.91,0.24-2.77-0.41
		c0.08-0.05,0.12-0.1,0.16-0.1c1.56-0.01,3.13,0,4.69-0.02c0.47-0.01,0.37,0.32,0.42,0.65c0.14-0.73,0.13-0.75-0.5-0.75
		c-1.66,0-3.32,0-4.97-0.01c-0.21,0-0.42,0.06-0.61-0.07c1.98-0.01,3.96-0.02,5.94-0.03c0.27,0,0.39,0.09,0.36,0.37
		c0,0.02,0,0.04,0,0.06c0.06,1.62,0.06,1.62-1.55,1.62c-2.21,0-4.42,0-6.62,0C84.62,37.99,84.4,38.1,84.27,37.88z"/>
	<path class="st4" d="M86.52,35.94c-0.17-0.2-0.09-0.44-0.09-0.66c-0.01-3.68-0.01-7.36-0.01-11.04c0.2,0.14,0.09,0.35,0.09,0.52
		C86.51,28.49,86.51,32.22,86.52,35.94z"/>
	<path class="st4" d="M38.1,22.52c0.03,0,0.07,0.01,0.1,0.01c0,3.89,0.01,7.78,0.01,11.67c-0.15-0.05-0.13-0.17-0.13-0.28
		C38.08,30.12,38.09,26.32,38.1,22.52z"/>
	<path class="st3" d="M56.84,25.88c0.04,1.67,0.06,3.34-0.01,5.01c-0.16-0.7-0.05-1.4-0.06-2.1c-0.02-0.97-0.01-1.94-0.01-2.91
		C56.79,25.87,56.81,25.87,56.84,25.88z"/>
	<path class="st3" d="M56.84,31.13c0.01,0.12,0.02,0.23,0.03,0.35c-0.08-0.04-0.16-0.08-0.23-0.11
		C56.7,31.29,56.77,31.21,56.84,31.13z"/>
	<path class="st5" d="M151.38,14.92c0-0.86,0-1.71,0-2.57c0-0.2-0.05-0.46,0.28-0.45c1.08,0.05,2.17-0.17,3.23,0.16
		c0.64,0.2,1.03,0.74,1.07,1.47c0.04,0.73-0.32,1.38-0.88,1.66c-0.67,0.33-1.38,0.23-2.08,0.24c-0.84,0.01-0.84,0-0.84,0.82
		c0,0.42-0.02,0.84,0,1.26c0.02,0.3-0.09,0.41-0.39,0.41c-0.3,0-0.4-0.13-0.39-0.41C151.38,16.64,151.38,15.78,151.38,14.92
		C151.38,14.92,151.38,14.92,151.38,14.92z M153.31,12.59C153.31,12.59,153.31,12.58,153.31,12.59c-0.19,0-0.39,0.02-0.57-0.01
		c-0.5-0.07-0.63,0.15-0.59,0.61c0.04,0.4,0.01,0.8,0.01,1.2c0,0.18,0.02,0.38,0.25,0.37c0.66-0.01,1.34,0.11,1.99-0.09
		c0.56-0.16,0.83-0.57,0.78-1.1c-0.06-0.61-0.43-0.95-1.06-0.99C153.84,12.58,153.57,12.59,153.31,12.59z"/>
	<path class="st5" d="M149.37,14.61c1.29,0.99,1.26,2.45-0.05,3.15c-1.05,0.56-2.48,0.08-2.78-0.93c-0.06-0.2-0.24-0.45,0.13-0.56
		c0.27-0.08,0.45-0.01,0.57,0.29c0.29,0.72,0.78,0.97,1.43,0.8c0.56-0.15,0.95-0.74,0.88-1.36c-0.07-0.65-0.5-1.01-1.27-1.04
		c-0.17-0.01-0.35,0.05-0.35-0.23c0-0.21,0.08-0.31,0.3-0.32c0.13-0.01,0.27-0.03,0.39-0.08c0.42-0.17,0.71-0.43,0.69-0.94
		c-0.02-0.46-0.28-0.75-0.69-0.89c-0.44-0.15-0.83-0.01-1.12,0.35c-0.12,0.15-0.19,0.32-0.26,0.5c-0.11,0.27-0.36,0.13-0.55,0.1
		c-0.23-0.04-0.15-0.23-0.11-0.37c0.2-0.8,1.18-1.35,2.1-1.18c0.84,0.15,1.4,0.83,1.35,1.65C149.99,13.95,149.88,14.13,149.37,14.61
		z"/>
	<path class="st5" d="M156.93,14.92c0-0.86,0.01-1.72,0-2.58c0-0.28,0.03-0.46,0.39-0.47c0.37,0,0.45,0.14,0.45,0.47
		c-0.01,1.43,0.01,2.86-0.02,4.29c-0.01,0.43,0.11,0.57,0.55,0.55c0.69-0.03,1.37,0,2.06-0.01c0.26,0,0.38,0.07,0.38,0.35
		c0,0.28-0.11,0.37-0.38,0.37c-1.01-0.01-2.02-0.01-3.03,0.01c-0.37,0.01-0.4-0.19-0.39-0.47C156.94,16.6,156.93,15.76,156.93,14.92
		C156.93,14.92,156.93,14.92,156.93,14.92z"/>
	<path class="st5" d="M81.74,21.16c-0.04,0.81-0.12,1.37-0.35,1.91c-0.48,1.12-1.6,1.7-2.79,1.45c-0.64-0.13-1.03-0.51-1.14-1.12
		c-0.13-0.73,0.1-1.36,0.66-1.69c0.48-0.29,1.01-0.43,1.56-0.53c0.48-0.1,0.98-0.16,1.46-0.27C81.77,20.75,81.76,20.74,81.74,21.16z
		"/>
	<path class="st4" d="M87.18,36.25c-0.01,0.03-0.02,0.08-0.04,0.09c-0.02,0.01-0.08-0.02-0.09-0.04c-0.01-0.02,0.02-0.06,0.04-0.09
		C87.12,36.22,87.15,36.24,87.18,36.25z"/>
	<path class="st2" d="M47.57,22.42c-1.47-0.53-2.94-1.08-4.42-1.59c-0.25-0.09-0.27-0.22-0.27-0.42c0-1.45,0.02-2.9-0.01-4.34
		c-0.01-0.54,0.33-0.31,0.52-0.25c1.15,0.4,2.29,0.81,3.42,1.24c0.26,0.1,0.58,0.05,0.78,0.32C47.58,19.06,47.58,20.74,47.57,22.42z
		"/>
	<path class="st5" d="M114.27,32.71c0,1.03-0.06,1.9-0.59,2.66c-0.55,0.79-1.34,1.03-2.25,0.91c-0.91-0.11-1.64-0.56-1.99-1.42
		c-0.57-1.4-0.56-2.84,0.04-4.23c0.49-1.13,1.85-1.81,2.94-1.4c0.79,0.3,1.42,0.9,1.63,1.81C114.19,31.64,114.31,32.24,114.27,32.71
		z"/>
	<path class="st5" d="M94.89,20.66c0.01,0.81-0.07,1.49-0.32,2.14c-0.4,1.04-1.26,1.69-2.22,1.68c-1.02,0-2.06-0.73-2.4-1.73
		c-0.47-1.36-0.46-2.74-0.02-4.1c0.3-0.93,0.95-1.55,1.94-1.74c1.07-0.2,1.91,0.28,2.45,1.11C94.83,18.84,94.93,19.82,94.89,20.66z"
		/>
	<path class="st5" d="M119.19,20.7c-0.05,0.94-0.07,1.8-0.47,2.59c-0.53,1.02-1.85,1.56-2.93,1.17c-0.52-0.19-0.87-0.56-0.92-1.13
		c-0.06-0.66,0.06-1.26,0.69-1.63c0.48-0.28,1.02-0.43,1.56-0.53C117.79,21.05,118.47,20.98,119.19,20.7z"/>
	<path class="st5" d="M102.14,32.93c0.02,0.65-0.03,1.29-0.21,1.93c-0.36,1.28-1.19,1.89-2.51,1.9c-1.22,0-1.89-0.6-2.24-1.64
		c-0.47-1.4-0.44-2.82-0.05-4.23c0.3-1.08,1.36-1.76,2.5-1.7c1.12,0.05,2.03,0.8,2.31,1.88C102.11,31.67,102.15,32.3,102.14,32.93z"
		/>
	<path class="st1" d="M153.31,12.59c0.27,0,0.53-0.01,0.8,0c0.63,0.03,0.99,0.38,1.06,0.99c0.05,0.53-0.22,0.94-0.78,1.1
		c-0.65,0.19-1.33,0.07-1.99,0.09c-0.23,0.01-0.25-0.19-0.25-0.37c0-0.4,0.03-0.8-0.01-1.2c-0.04-0.46,0.09-0.68,0.59-0.61
		C152.92,12.61,153.12,12.58,153.31,12.59C153.31,12.58,153.31,12.59,153.31,12.59z"/>
</g>
</svg>
